<svg width="14" height="13" viewBox="0 0 14 13" fill="none" xmlns="http://www.w3.org/2000/svg">
<path d="M8.86423 12.5229C8.76346 12.4892 8.66782 12.4417 8.58003 12.3817C7.55016 11.4175 6.35592 10.6854 5.18581 9.91426C4.48156 9.4539 3.7923 8.97608 3.1097 8.48319C2.13619 7.7811 1.38771 6.81034 0.955577 5.68935C0.463936 4.43278 0.628735 3.20551 1.30216 2.0577C1.48875 1.76285 1.7385 1.51329 2.03329 1.3271C2.6216 0.935026 3.30755 0.715395 4.0138 0.692974C4.81929 0.668878 5.54998 0.831384 6.06056 1.53029C6.1432 1.64361 6.23812 1.74741 6.34358 1.83979C6.74059 2.18546 7.20874 2.1743 7.52651 1.74852C8.09483 0.983503 8.85198 0.515159 9.72867 0.209399C10.587 -0.0894694 11.3933 0.00825795 12.1243 0.534499C12.5031 0.787143 12.8417 1.09577 13.1283 1.4499C14.0365 2.6728 14.2802 3.88744 13.3695 5.24505C12.784 6.11576 12.1579 6.96443 11.4913 7.7735C10.3857 9.11506 9.48412 10.5532 9.02812 12.2507C8.98599 12.3484 8.93086 12.44 8.86423 12.5229Z" fill="#FF0F82"/>
</svg>
